<?xml version="1.0" encoding="UTF-8"?>
<svg xmlns="http://www.w3.org/2000/svg" viewBox="0 0 512 512">
  
    <defs>
      <linearGradient id="bg" x1="0%" y1="0%" x2="100%" y2="100%">
        <stop offset="0%" stop-color="#9D3D3D" />
        <stop offset="100%" stop-color="#351316" />
      </linearGradient>
      <radialGradient id="halo" cx="50%" cy="20%" r="80%">
        <stop offset="0%" stop-color="rgba(255,255,255,0.55)" />
        <stop offset="100%" stop-color="rgba(255,255,255,0)" />
      </radialGradient>
    </defs>
    
  <rect width="512" height="512" rx="160" fill="url(#bg)"/>
  <circle cx="256" cy="192" r="118" fill="#FFB28B" opacity="0.18"/>
  <circle cx="256" cy="188" r="86" fill="#F7E4D1"/>
  <path d="M172 178c18-62 150-94 174 4c-7 10-20 19-37 24c-44 13-95 12-138-8c0-8 1-14 1-20Z" fill="#351316"/>
  <path d="M160 418c14-86 64-120 96-120s84 34 96 120" fill="#9D3D3D"/>
  <path d="M138 428c25-42 63-72 118-72s93 30 118 72" fill="#351316" opacity="0.68"/>
  <circle cx="228" cy="194" r="9" fill="#351316"/>
  <circle cx="284" cy="194" r="9" fill="#351316"/>
  <path d="M228 238c12 11 44 11 56 0" stroke="#351316" stroke-width="8" stroke-linecap="round" fill="none"/>
  <circle cx="372" cy="118" r="44" fill="#FFA684" opacity="0.92"/>
  <text x="372" y="132" font-size="36" text-anchor="middle" fill="#351316" font-family="Arial, sans-serif" font-weight="700">6</text>
  <text x="256" y="470" font-size="34" text-anchor="middle" fill="rgba(255,255,255,0.9)" font-family="Arial, sans-serif" font-weight="700">流火</text>
</svg>
